<svg width="36" height="36" viewBox="0 0 36 36" fill="none" xmlns="http://www.w3.org/2000/svg">
<g clip-path="url(#clip0_176_8997)">
<rect width="36" height="36" rx="18" fill="white"/>
<path d="M12.0456 29.3629C10.2521 28.0981 8.9078 26.2951 8.20757 24.2152C7.50734 22.1352 7.48751 19.8864 8.15095 17.7944C8.81439 15.7024 10.1266 13.876 11.8976 12.5798C13.6685 11.2836 15.8062 10.5848 18.0008 10.5848C20.1955 10.5848 22.3331 11.2836 24.104 12.5798C25.875 13.876 27.1872 15.7024 27.8507 17.7944C28.5141 19.8864 28.4943 22.1352 27.7941 24.2152C27.0938 26.2951 25.7496 28.0981 23.956 29.3629L26.6466 35.5112C26.6898 35.6096 26.7078 35.7173 26.6988 35.8244C26.6899 35.9315 26.6544 36.0347 26.5955 36.1246C26.5367 36.2145 26.4563 36.2884 26.3617 36.3393C26.267 36.3903 26.1612 36.4169 26.0537 36.4167H9.94663C9.83931 36.4168 9.73364 36.3902 9.63918 36.3393C9.54472 36.2884 9.46443 36.2147 9.40559 36.125C9.34674 36.0352 9.31118 35.9322 9.30213 35.8253C9.29308 35.7184 9.31082 35.6109 9.35375 35.5125L12.0443 29.3629H12.0456ZM12.9872 22.1696C13.2682 23.2862 13.914 24.2771 14.8221 24.985C15.7302 25.6929 16.8487 26.0773 18.0002 26.0773C19.1516 26.0773 20.2701 25.6929 21.1782 24.985C22.0864 24.2771 22.7321 23.2862 23.0131 22.1696L20.5073 21.5431C20.3682 22.1029 20.0458 22.6 19.5915 22.9553C19.1371 23.3106 18.5769 23.5036 18.0002 23.5036C17.4234 23.5036 16.8632 23.3106 16.4088 22.9553C15.9545 22.6 15.6321 22.1029 15.493 21.5431L12.9872 22.1696Z" fill="#C4CAD0"/>
</g>
<defs>
<clipPath id="clip0_176_8997">
<rect width="36" height="36" rx="18" fill="white"/>
</clipPath>
</defs>
</svg>
